<svg width="320" height="120" viewBox="0 0 320 120" fill="none" xmlns="http://www.w3.org/2000/svg">
  <defs>
    <linearGradient id="body" x1="42" y1="24" x2="252" y2="88" gradientUnits="userSpaceOnUse">
      <stop stop-color="#FDFEFF"/>
      <stop offset="0.55" stop-color="#D8E7F0"/>
      <stop offset="1" stop-color="#8BA7B8"/>
    </linearGradient>
    <linearGradient id="wing" x1="108" y1="28" x2="207" y2="99" gradientUnits="userSpaceOnUse">
      <stop stop-color="#F7FBFF"/>
      <stop offset="1" stop-color="#A6BECC"/>
    </linearGradient>
    <linearGradient id="tail" x1="42" y1="22" x2="88" y2="74" gradientUnits="userSpaceOnUse">
      <stop stop-color="#EFF8FF"/>
      <stop offset="1" stop-color="#7C98AA"/>
    </linearGradient>
    <filter id="shadow" x="0" y="0" width="320" height="120" filterUnits="userSpaceOnUse" color-interpolation-filters="sRGB">
      <feDropShadow dx="0" dy="8" stdDeviation="8" flood-color="#184764" flood-opacity="0.28"/>
    </filter>
  </defs>
  <g filter="url(#shadow)">
    <path d="M34 60C34 50.2 41.9 42 51.7 41.5L188.5 35.3C197.8 34.9 206.9 38 214 44L276.3 96.8C279.7 99.6 278 105 273.4 105H239.7C236.3 105 233 103.9 230.3 101.9L191.1 72.9L165.9 74.2L150.4 95.8C148.5 98.4 145.4 100 142.2 100H111.6C107.2 100 104.7 95.1 107.2 91.5L118.8 75.6L54.5 79C43.2 79.6 34 70.5 34 60Z" fill="url(#body)"/>
    <path d="M117.5 54.5L190.8 15.7C193.8 14.1 197.4 13.9 200.6 15.1L214.7 20.3C219.5 22.1 220.3 28.6 216 31.5L153.5 73.8L117.5 54.5Z" fill="url(#wing)"/>
    <path d="M138.3 65.8L215 93.5C218.2 94.7 221.7 94.2 224.6 92.1L236.9 83.3C241.1 80.2 240.1 73.7 235.1 72.1L162.8 48.4L138.3 65.8Z" fill="#B4CAD6"/>
    <path d="M44.1 43.7L75.8 19.6C78 17.9 80.8 17 83.6 17H97.5C102.5 17 105 23.1 101.3 26.6L81.8 44.8L44.1 43.7Z" fill="url(#tail)"/>
    <path d="M65.3 78.1L83.6 97.3C86.9 100.8 84.4 106.5 79.7 106.5H66.2C63.7 106.5 61.2 105.6 59.3 103.8L36.3 82.5L65.3 78.1Z" fill="#A1B9C6"/>
    <rect x="78" y="48" width="78" height="7" rx="3.5" fill="#F8FCFF" fill-opacity="0.75"/>
    <circle cx="194" cy="56" r="5" fill="#6EC9FF" fill-opacity="0.8"/>
    <path d="M188.5 35.3L224.5 37.6C230.7 38 236.7 40.2 241.6 44L287.6 79.3" stroke="#9BB8C8" stroke-width="4" stroke-linecap="round" opacity="0.7"/>
  </g>
</svg>
